<svg xmlns="http://www.w3.org/2000/svg" viewBox="0 0 24 24">
  <rect width="24" height="24" rx="6" fill="#FFFFFF" stroke="#E0E0E0" stroke-width="0.5"/>
  <path d="M12 5C8.1 5 5 8.1 5 12s3.1 7 7 7c3.9 0 7-3.1 7-7 0-.5 0-.9-.1-1.4H12v2.8h3.8c-.4 1.9-2.1 3.2-3.8 3.2-2.2 0-4-1.8-4-4s1.8-4 4-4c1.1 0 2 .4 2.7 1.1l2-2C15.5 6.1 13.8 5 12 5z" fill="#4285F4"/>
  <path d="M5.3 9.7L7.6 11.4c.6-1.8 2.2-3 4-3 1.1 0 2 .4 2.7 1.1l2-2C15.5 6.1 13.8 5 12 5 8.9 5 6.3 6.9 5.3 9.7z" fill="#EA4335"/>
  <path d="M12 19c1.9 0 3.5-.6 4.6-1.7l-2.1-1.8c-.6.4-1.5.7-2.5.7-1.7 0-3.2-1.1-3.8-2.8L5.9 15c1.1 2.5 3.5 4 6.1 4z" fill="#34A853"/>
  <path d="M19 12c0-.5 0-.9-.1-1.4H12v2.8h3.8c-.2.9-.7 1.7-1.4 2.2l2.1 1.8C17.8 16.2 19 14.3 19 12z" fill="#4285F4"/>
</svg>
