<svg xmlns="http://www.w3.org/2000/svg" viewBox="0 0 24 24">
  <rect width="24" height="24" rx="6" fill="#E60023"/>
  <path d="M12 2C6.5 2 2 6.5 2 12c0 4.2 2.6 7.8 6.3 9.3-.1-.8-.1-2 .2-2.9.3-1 2-8.3 2-8.3s-.5-1-.5-2.5c0-2.4 1.4-4.1 3.1-4.1 1.5 0 2.2 1.1 2.2 2.4 0 1.5-.9 3.7-1.4 5.7-.4 1.7 1 3.1 2.6 3.1 3.1 0 5.2-4 5.2-8.7 0-3.6-2.4-6.4-6.8-6.4-4.9 0-7.9 3.7-7.9 7.8 0 1.5.4 2.5 1.1 3.3.3.4.4.5.3.9-.1.3-.3 1.1-.4 1.4-.1.5-.4.6-.9.4C5.6 17.4 4 15.2 4 12.4 4 7.5 7.8 2.5 13.6 2.5c4.7 0 7.8 3.4 7.8 7 0 5.4-3 9.4-7.3 9.4-1.5 0-2.9-.8-3.3-1.7l-.9 3.5c-.3 1.2-1.2 2.7-1.8 3.6.7.2 1.4.3 2.1.3 5.5 0 10-4.5 10-10S17.5 2 12 2z" fill="white"/>
</svg>
