<svg xmlns="http://www.w3.org/2000/svg" viewBox="0 0 24 24">
  <rect width="24" height="24" rx="6" fill="#FF4500"/>
  <circle cx="12" cy="12" r="7" fill="white"/>
  <path d="M22 12a2 2 0 0 0-2-2 2 2 0 0 0-1.3.5C17.3 9.6 15.8 9 14.1 9l.9-3.7 2.5.5a1.4 1.4 0 1 0 .2-.9l-2.8-.6L13.8 8.7c-1.7.06-3.2.66-4.4 1.74A2 2 0 1 0 7 13.1a3.3 3.3 0 0 0 0 .4c0 2.3 2.7 4.2 6 4.2s6-1.9 6-4.2a3.3 3.3 0 0 0 0-.4 2 2 0 0 0 1-1.7v-.4zM9.5 13.5a1 1 0 1 1 2 0 1 1 0 0 1-2 0zm5.8 2.6a3.6 3.6 0 0 1-3.3 0 .4.4 0 0 1 .4-.6 2.8 2.8 0 0 0 2.6 0 .4.4 0 0 1 .4.6zm-.3-1.6a1 1 0 1 1 0-2 1 1 0 0 1 0 2z" fill="#FF4500"/>
</svg>
