<svg xmlns="http://www.w3.org/2000/svg" viewBox="0 0 24 24">
  <rect width="24" height="24" rx="6" fill="#FFFC00"/>
  <path d="M12 3.5c-2.3 0-4.2 1.9-4.2 4.2v1.7c-.5.1-1.1-.1-1.4.3-.2.3-.1.7.1.9.4.4 1.2.5 1.5.6-.3.7-.9 1.5-2.3 1.8-.3.1-.4.5-.2.7.6.6 2.1.7 2.8 1.1.2.1.3.3.2.5-.2.5-.7.8-1.2.8-.3 0-.5.2-.5.4 0 .5 1.1.9 1.8 1 .4.5.8 1 1.3 1.2.5.2 1.2.2 2 .2.8 0 1.5 0 2-.2.5-.2.9-.7 1.3-1.2.7-.1 1.8-.5 1.8-1 0-.2-.2-.4-.5-.4-.5 0-1-.3-1.2-.8-.1-.2 0-.4.2-.5.7-.4 2.2-.5 2.8-1.1.2-.2.1-.6-.2-.7-1.4-.3-2-1.1-2.3-1.8.3-.1 1.1-.2 1.5-.6.2-.2.3-.6.1-.9-.3-.4-.9-.2-1.4-.3V7.7c0-2.3-1.9-4.2-4.2-4.2z" fill="#000000"/>
</svg>
