<svg xmlns="http://www.w3.org/2000/svg" viewBox="0 0 24 24">
  <rect width="24" height="24" rx="6" fill="#000000"/>
  <path d="M16.4 11.6c-.1-.07-.3-.13-.4-.19-.24-2.52-1.52-3.97-3.85-3.99h-.07c-1.4 0-2.56.6-3.28 1.69l1.22.84c.53-.8 1.35-1.1 2.06-1.1h.05c.8 0 1.37.24 1.74.7.28.35.46.82.55 1.42a9.4 9.4 0 0 0-2.22-.11c-2.23.13-3.66 1.4-3.57 3.16.04.9.5 1.68 1.28 2.18.66.43 1.5.64 2.37.6 1.16-.06 2.07-.5 2.71-1.33.5-.65.8-1.5.92-2.53.5.3.88.7 1.1 1.2.4.88.42 2.32-.84 3.57-.93.94-2.2 1.4-3.94 1.41-1.97.01-3.49-.65-4.53-1.96C6.5 16.2 6 14.5 6 12.33c0-2.17.5-3.87 1.5-5.04 1.04-1.32 2.56-1.97 4.53-1.98 2.02-.01 3.56.66 4.58 2 .47.63.83 1.42 1.08 2.36l1.4-.38c-.3-1.13-.74-2.1-1.35-2.9C16.47 5.07 14.55 4.18 12 4.2c-2.53.01-4.48.84-5.79 2.46C5.13 7.92 4.5 9.9 4.5 12.33s.63 4.41 1.71 5.67c1.31 1.62 3.26 2.45 5.79 2.44 2.08-.01 3.74-.56 4.98-1.82 1.66-1.66 1.63-3.72.98-5.06z" fill="white"/>
  <path d="M12.2 15.1c-.96.05-1.96-.39-2-.96-.03-.44.37-.93 1.55-1 .54-.03 1.04-.02 1.5.03-.18 1.08-.6 1.9-1.05 1.93z" fill="white"/>
</svg>
