<svg xmlns="http://www.w3.org/2000/svg" viewBox="0 0 24 24">
  <rect width="24" height="24" rx="6" fill="#010101"/>
  <path d="M16.6 5.82s.51.5 0 0A4.278 4.278 0 0 1 15.54 3h-3.09v12.4a2.592 2.592 0 0 1-2.59 2.5 2.592 2.592 0 0 1-2.59-2.5 2.592 2.592 0 0 1 2.59-2.5c.28 0 .54.04.79.1V9.81a5.65 5.65 0 0 0-.79-.05 5.67 5.67 0 0 0-5.67 5.67 5.67 5.67 0 0 0 5.67 5.67 5.67 5.67 0 0 0 5.67-5.67V9.41a7.35 7.35 0 0 0 4.34 1.4V7.82a4.32 4.32 0 0 1-3.27-2z" fill="white"/>
  <path d="M16.6 5.82A4.278 4.278 0 0 1 15.54 3h1.06a4.32 4.32 0 0 0 1.06 2.82z" fill="#EE1D52"/>
  <path d="M9.87 17.1a2.592 2.592 0 0 1-2.59-2.5 2.592 2.592 0 0 1 2.59-2.5c.28 0 .54.04.79.1V9.81a5.65 5.65 0 0 0-.79-.05 5.67 5.67 0 0 0-5.67 5.67 5.67 5.67 0 0 0 5.67 5.67 5.67 5.67 0 0 0 5.67-5.67V9.41a7.35 7.35 0 0 0 4.34 1.4V7.82a4.32 4.32 0 0 1-3.27-2s.51.5 0 0V9.41a7.35 7.35 0 0 1-4.34-1.4v5.96a5.67 5.67 0 0 1-5.67 5.67 5.67 5.67 0 0 1 3.27-5.54z" fill="#69C9D0"/>
</svg>
